<?xml version="1.0" encoding="utf-8"?>
<svg version="1.1" id="Layer_1" xmlns="http://www.w3.org/2000/svg" xmlns:xlink="http://www.w3.org/1999/xlink" x="0px" y="0px"
	 width="378px" height="312px" viewBox="0 0 378 312" enable-background="new 0 0 378 312" xml:space="preserve">
<g>
	<path fill="#2D2D2D" d="M418.1,610.3c135.2,0,244.8-21.1,244.8-47.2c0-13.6-29.8-25.8-77.6-34.5l-11.3-119
		c-5.6-59.4-67-96.6-122.3-73.9l0,0c-21.6,8.9-45.8,8.9-67.4,0l0,0c-55.2-22.6-116.7,14.5-122.3,73.9l-11.3,119
		c-47.7,8.6-77.6,20.9-77.6,34.5C173.3,589.2,282.9,610.3,418.1,610.3z"/>
	<path fill="#2D2D2D" d="M567.9,730.6l65.4-131.9c-11,3.6-24.3,6.9-39.8,9.9c-11.4,2.2-23.8,4.2-36.9,5.9
		c-4.4,17.1-14.5,36.4-37.7,43.9c-53.5,17.3-75.6-12.7-84.5-35.8c-5.4,0.1-10.9,0.1-16.4,0.1s-11,0-16.4-0.1
		c-8.9,23.1-31,53.1-84.5,35.8c-23.2-7.5-33.3-26.7-37.7-43.9c-13.1-1.7-25.5-3.7-36.9-5.9c-15.6-3-28.8-6.3-39.8-9.9l65.4,131.9
		c-90.8,0-113.3,93.2-113.3,93.2h263.1h263.1C681.2,823.8,658.8,730.6,567.9,730.6z"/>
</g>
</svg>
